/* XPM */
static char * Kolka_xpm[] = {
"30 30 592 2",
"  	c None",
". 	c #E0CCCC",
"+ 	c #E2B3B3",
"@ 	c #D39898",
"# 	c #CF8C8B",
"$ 	c #CF8F8F",
"% 	c #CE9897",
"& 	c #D1A7A6",
"* 	c #DCC7C6",
"= 	c #D8CACA",
"- 	c #CE8989",
"; 	c #C35251",
"> 	c #C93C3D",
", 	c #C63634",
"' 	c #C03130",
") 	c #BB302F",
"! 	c #B32E2E",
"~ 	c #AB2B2B",
"{ 	c #A22A28",
"] 	c #9B2D2A",
"^ 	c #9A4342",
"/ 	c #B07D7D",
"( 	c #C77878",
"_ 	c #CA403F",
": 	c #D63837",
"< 	c #D93E3E",
"[ 	c #D33F3D",
"} 	c #CE3D3E",
"| 	c #CA3C3D",
"1 	c #C43C3B",
"2 	c #BE3A39",
"3 	c #B53836",
"4 	c #AD3333",
"5 	c #A32F2E",
"6 	c #972927",
"7 	c #851D1D",
"8 	c #7E2726",
"9 	c #B47168",
"0 	c #DCC9C5",
"a 	c #DDBBBB",
"b 	c #D45453",
"c 	c #E03939",
"d 	c #E14240",
"e 	c #DD4341",
"f 	c #D84242",
"g 	c #D4403F",
"h 	c #CF3E3E",
"i 	c #C93D3C",
"j 	c #C23C3B",
"k 	c #BD3A3A",
"l 	c #B43837",
"m 	c #AE3534",
"n 	c #A43231",
"o 	c #9C2E2D",
"p 	c #902C2B",
"q 	c #822422",
"r 	c #711713",
"s 	c #5D1715",
"t 	c #856A68",
"u 	c #D53E3C",
"v 	c #E43F3F",
"w 	c #E24544",
"x 	c #E04444",
"y 	c #DC4342",
"z 	c #D74243",
"A 	c #D33F40",
"B 	c #CD3E3D",
"C 	c #C73D3B",
"D 	c #C13C3A",
"E 	c #BC3A39",
"F 	c #B33736",
"G 	c #AD3534",
"H 	c #A33131",
"I 	c #842826",
"J 	c #792221",
"K 	c #671918",
"L 	c #450302",
"M 	c #806160",
"N 	c #E5C0BF",
"O 	c #DB4544",
"P 	c #E5403F",
"Q 	c #E24445",
"R 	c #DF4646",
"S 	c #DB4546",
"T 	c #D64444",
"U 	c #D14241",
"V 	c #CB3E3D",
"W 	c #C53C3A",
"X 	c #C03A3A",
"Y 	c #B83938",
"Z 	c #B23635",
"` 	c #AA3433",
" .	c #A1312F",
"..	c #992E2C",
"+.	c #8F2B2B",
"@.	c #832626",
"#.	c #792321",
"$.	c #6B1E1B",
"%.	c #571514",
"&.	c #3F0302",
"*.	c #A48482",
"=.	c #D84D4C",
"-.	c #E43E3E",
";.	c #E44444",
">.	c #E24747",
",.	c #E24D4D",
"'.	c #E25353",
").	c #DE5555",
"!.	c #D85050",
"~.	c #D14847",
"{.	c #C94140",
"].	c #C33C3A",
"^.	c #B53737",
"/.	c #AE3535",
"(.	c #A63232",
"_.	c #9E2F2E",
":.	c #972D2C",
"<.	c #8C2A29",
"[.	c #812524",
"}.	c #762220",
"|.	c #681C1B",
"1.	c #581616",
"2.	c #460B0C",
"3.	c #4E100D",
"4.	c #D4C1BF",
"5.	c #D47D7D",
"6.	c #E03A3A",
"7.	c #E24746",
"8.	c #E35251",
"9.	c #E76362",
"0.	c #E96F6E",
"a.	c #E77170",
"b.	c #DF6766",
"c.	c #D35554",
"d.	c #C84645",
"e.	c #BF3D3B",
"f.	c #B83A38",
"g.	c #B23736",
"h.	c #AB3434",
"i.	c #A33130",
"j.	c #9C2F2D",
"k.	c #932C2C",
"l.	c #882928",
"m.	c #7E2524",
"n.	c #72201F",
"o.	c #661C1A",
"p.	c #561615",
"q.	c #48100F",
"r.	c #420504",
"s.	c #733F3B",
"t.	c #E5CDCD",
"u.	c #D24140",
"v.	c #E14142",
"w.	c #E14444",
"x.	c #E14D4D",
"y.	c #E96563",
"z.	c #F27E7D",
"A.	c #F58C8B",
"B.	c #F28A8A",
"C.	c #E67A79",
"D.	c #D56260",
"E.	c #C84C4B",
"F.	c #BC3E3E",
"G.	c #B43937",
"H.	c #A73333",
"I.	c #A0302F",
"J.	c #982D2D",
"K.	c #842827",
"L.	c #7A2322",
"M.	c #6F1F1D",
"N.	c #631A19",
"O.	c #531514",
"P.	c #47100E",
"Q.	c #480E0D",
"R.	c #470807",
"S.	c #C2AFAE",
"T.	c #E09292",
"U.	c #D93634",
"V.	c #DD4343",
"W.	c #DE4646",
"X.	c #E25856",
"Y.	c #EE7878",
"Z.	c #F89594",
"`.	c #FCA09F",
" +	c #F59A9B",
".+	c #E98786",
"++	c #D56A68",
"@+	c #C54F4E",
"#+	c #B83F3F",
"$+	c #AF3737",
"%+	c #A93433",
"&+	c #A23130",
"*+	c #9B2E2D",
"=+	c #932C2B",
"-+	c #8A2A29",
";+	c #802625",
">+	c #752220",
",+	c #6A1D1B",
"'+	c #5E1A17",
")+	c #4D1413",
"!+	c #44100F",
"~+	c #48100E",
"{+	c #440504",
"]+	c #835959",
"^+	c #DB6767",
"/+	c #D83C3B",
"(+	c #DA4341",
"_+	c #DB4848",
":+	c #E15F5C",
"<+	c #ED807E",
"[+	c #F89A9A",
"}+	c #FAA2A2",
"|+	c #F39B9A",
"1+	c #E68584",
"2+	c #D16866",
"3+	c #C04D4C",
"4+	c #B43D3C",
"5+	c #AA3536",
"6+	c #9E302E",
"7+	c #962D2C",
"8+	c #8E2B2A",
"9+	c #7B2322",
"0+	c #70201E",
"a+	c #641B19",
"b+	c #581716",
"c+	c #461210",
"d+	c #41100F",
"e+	c #4A0D0C",
"f+	c #561B1A",
"g+	c #E6C6C6",
"h+	c #CD3B3A",
"i+	c #D63F3E",
"j+	c #D54140",
"k+	c #D64746",
"l+	c #DC5C5A",
"m+	c #E57876",
"n+	c #EE8D8D",
"o+	c #EE9493",
"p+	c #E78C8A",
"q+	c #D97776",
"r+	c #C85C5C",
"s+	c #B94646",
"t+	c #AD3A39",
"u+	c #A53333",
"v+	c #992D2D",
"w+	c #912C2B",
"x+	c #882828",
"y+	c #762120",
"z+	c #5E1A18",
"A+	c #521513",
"B+	c #43110F",
"C+	c #470F0F",
"D+	c #4A0F0E",
"E+	c #4C0E0D",
"F+	c #C6B1B2",
"G+	c #D18E8E",
"H+	c #CB3534",
"I+	c #D1403E",
"J+	c #D0403F",
"K+	c #D14342",
"L+	c #D3514F",
"M+	c #D96664",
"N+	c #DF7473",
"O+	c #DD7976",
"P+	c #D5716F",
"Q+	c #C9605F",
"R+	c #BC4C4C",
"S+	c #B03E3D",
"T+	c #A63634",
"U+	c #9A2E2C",
"V+	c #8B2929",
"W+	c #822626",
"X+	c #631B19",
"Y+	c #571716",
"Z+	c #4A1211",
"`+	c #400F0F",
" @	c #42100F",
".@	c #46100F",
"+@	c #4B100E",
"@@	c #A78786",
"#@	c #C46E6D",
"$@	c #CA3636",
"%@	c #CC3E3D",
"&@	c #CA403E",
"*@	c #CA4644",
"=@	c #CB5050",
"-@	c #CC5959",
";@	c #CA5B5A",
">@	c #C35554",
",@	c #BA4A49",
"'@	c #B03F3F",
")@	c #A83736",
"!@	c #A13130",
"~@	c #9A2E2D",
"{@	c #942C2B",
"]@	c #8C2A2A",
"^@	c #852626",
"/@	c #7B2423",
"(@	c #72201E",
"_@	c #671C1B",
":@	c #5C1817",
"<@	c #511414",
"[@	c #420F0F",
"}@	c #3D100F",
"|@	c #421010",
"1@	c #46100E",
"2@	c #4B100F",
"3@	c #4A0C0B",
"4@	c #7B4D4C",
"5@	c #C26363",
"6@	c #C53736",
"7@	c #C73D3C",
"8@	c #C63D3B",
"9@	c #C33C3B",
"0@	c #C23E3D",
"a@	c #C04140",
"b@	c #BE4444",
"c@	c #BC4444",
"d@	c #B64141",
"e@	c #AE3C3B",
"f@	c #A73736",
"g@	c #A13231",
"h@	c #942D2B",
"i@	c #8F2A29",
"j@	c #852827",
"k@	c #7E2523",
"l@	c #742120",
"m@	c #6B1D1C",
"n@	c #5F1B19",
"o@	c #531615",
"p@	c #471210",
"q@	c #3D0E0D",
"r@	c #3D1010",
"s@	c #421110",
"t@	c #4B0F0E",
"u@	c #713E3E",
"v@	c #C26867",
"w@	c #C03534",
"x@	c #C23B3B",
"y@	c #C13B3A",
"z@	c #BF3A3A",
"A@	c #B93A39",
"B@	c #B43A39",
"C@	c #B13A39",
"D@	c #AC3838",
"E@	c #A73534",
"F@	c #9B2F2E",
"G@	c #942D2C",
"H@	c #8D2B2A",
"I@	c #862827",
"J@	c #782321",
"K@	c #6D1F1D",
"L@	c #631C1A",
"M@	c #581817",
"N@	c #4C1312",
"O@	c #400F0D",
"P@	c #3B0E0C",
"Q@	c #3E1010",
"R@	c #431110",
"S@	c #480F0F",
"T@	c #4C1210",
"U@	c #4B0E0D",
"V@	c #774647",
"W@	c #C47473",
"X@	c #B83130",
"Y@	c #BC3939",
"Z@	c #BC3937",
"`@	c #AD3636",
" #	c #A93535",
".#	c #9F312F",
"+#	c #952C2B",
"@#	c #8E2B29",
"##	c #6F201E",
"$#	c #5D1917",
"%#	c #511513",
"&#	c #3A0D0A",
"*#	c #3A0E0D",
"=#	c #3F1110",
"-#	c #4B1310",
";#	c #4B0D0B",
">#	c #7F5150",
",#	c #C18584",
"'#	c #AF2E2B",
")#	c #B43736",
"!#	c #B13735",
"~#	c #AE3635",
"{#	c #A73332",
"]#	c #A23230",
"^#	c #992E2D",
"/#	c #932D2B",
"(#	c #8D2A29",
"_#	c #7F2524",
":#	c #792322",
"<#	c #71201E",
"[#	c #671D1B",
"}#	c #5E1918",
"|#	c #551615",
"1#	c #481211",
"2#	c #3B0D0C",
"3#	c #390C0B",
"4#	c #3C1010",
"5#	c #45100F",
"6#	c #49100F",
"7#	c #4D1312",
"8#	c #490907",
"9#	c #8D6A6A",
"0#	c #DABBBA",
"a#	c #A62E2D",
"b#	c #AD3433",
"c#	c #AB3432",
"d#	c #A73331",
"e#	c #982E2B",
"f#	c #922D2B",
"g#	c #852728",
"h#	c #7F2625",
"i#	c #782322",
"j#	c #691D1C",
"k#	c #5F1A19",
"l#	c #551715",
"m#	c #4B1211",
"n#	c #3D0F0D",
"o#	c #370B0A",
"p#	c #3B0E0E",
"q#	c #41110F",
"r#	c #4A100F",
"s#	c #4E1413",
"t#	c #460907",
"u#	c #A99091",
"v#	c #A7403E",
"w#	c #A42E2C",
"x#	c #A53331",
"y#	c #A33230",
"z#	c #9E2F2D",
"A#	c #9A2D2D",
"B#	c #962C2C",
"C#	c #912C2A",
"D#	c #842726",
"E#	c #7E2525",
"F#	c #782221",
"G#	c #701F1E",
"H#	c #601A19",
"I#	c #4D1412",
"J#	c #40100E",
"K#	c #370C0A",
"L#	c #380C0B",
"M#	c #3F1010",
"N#	c #4D1311",
"O#	c #511716",
"P#	c #D6CDCD",
"Q#	c #B97B7A",
"R#	c #982423",
"S#	c #922C2C",
"T#	c #7C2524",
"U#	c #6E1F1D",
"V#	c #571616",
"W#	c #3F0F0E",
"X#	c #360C0B",
"Y#	c #370B0B",
"Z#	c #3B0F0E",
"`#	c #3F110F",
" $	c #42110F",
".$	c #4C1513",
"+$	c #460A08",
"@$	c #7B5351",
"#$	c #973533",
"$$	c #942928",
"%$	c #922C2B",
"&$	c #802525",
"*$	c #74221F",
"=$	c #6C1F1B",
"-$	c #561616",
";$	c #4E1312",
">$	c #410F0E",
",$	c #350B0B",
"'$	c #43110E",
")$	c #470F0E",
"!$	c #4B1212",
"~$	c #470D0B",
"{$	c #C2B3B0",
"]$	c #B17C7B",
"^$	c #841C1A",
"/$	c #8C2B2B",
"($	c #892928",
"_$	c #822726",
":$	c #73201E",
"<$	c #6C1E1C",
"[$	c #651C1A",
"}$	c #5E1917",
"|$	c #431010",
"1$	c #3C110F",
"2$	c #40100F",
"3$	c #460F0E",
"4$	c #4A1111",
"5$	c #4D1614",
"6$	c #450806",
"7$	c #845C59",
"8$	c #914242",
"9$	c #7E1E1B",
"0$	c #7E2625",
"a$	c #7A2423",
"b$	c #772220",
"c$	c #641B1A",
"d$	c #5D1A18",
"e$	c #551616",
"f$	c #3A0D0C",
"g$	c #380C0A",
"h$	c #43100E",
"i$	c #4A1010",
"j$	c #4B1513",
"k$	c #56211C",
"l$	c #D5C1C1",
"m$	c #762523",
"n$	c #741C1B",
"o$	c #72211F",
"p$	c #6D1F1C",
"q$	c #611A1A",
"r$	c #5B1817",
"s$	c #521614",
"t$	c #3B0C0D",
"u$	c #390D0C",
"v$	c #3B100E",
"w$	c #3E110F",
"x$	c #401110",
"y$	c #4D1514",
"z$	c #49100E",
"A$	c #3E0605",
"B$	c #AC9999",
"C$	c #CBB5B5",
"D$	c #6E2423",
"E$	c #621210",
"F$	c #621B19",
"G$	c #571717",
"H$	c #501513",
"I$	c #3C0D0D",
"J$	c #3C100F",
"K$	c #43100F",
"L$	c #451010",
"M$	c #481010",
"N$	c #4B1412",
"O$	c #4D1615",
"P$	c #480D0B",
"Q$	c #511B1B",
"R$	c #A38E8E",
"S$	c #D3C4C4",
"T$	c #7C4747",
"U$	c #510C0A",
"V$	c #531010",
"W$	c #521514",
"X$	c #4A1312",
"Y$	c #441110",
"Z$	c #3F100E",
"`$	c #44110E",
" %	c #471110",
".%	c #491211",
"+%	c #4B1312",
"@%	c #430604",
"#%	c #5B2B2A",
"$%	c #CDC3C3",
"%%	c #B09696",
"&%	c #5E2C2B",
"*%	c #410503",
"=%	c #430A08",
"-%	c #450F0F",
";%	c #471211",
">%	c #4C1412",
",%	c #4D1513",
"'%	c #4E1513",
")%	c #4D120F",
"!%	c #450807",
"~%	c #4E1917",
"{%	c #8E6F6E",
"]%	c #AA8E8D",
"^%	c #6B3B39",
"/%	c #4C100F",
"(%	c #490B09",
"_%	c #4C0E0C",
":%	c #4D0F0E",
"<%	c #4D0F0D",
"[%	c #4C0D0C",
"}%	c #490A08",
"|%	c #470908",
"1%	c #541E1E",
"2%	c #8B6B6B",
"3%	c #D5CCCC",
"4%	c #C7B6B6",
"5%	c #9A7C7B",
"6%	c #744949",
"7%	c #774A4B",
"8%	c #764B4A",
"9%	c #7E5856",
"0%	c #8F706F",
"a%	c #A79494",
"                      . + @ # $ % & *                       ",
"                = - ; > , ' ) ! ~ { ] ^ /                   ",
"              ( _ : < [ } | 1 2 3 4 5 6 7 8 9 0             ",
"          a b c d e f g h i j k l m n o p q r s t           ",
"          u v w x y z A B C D E F G H o p I J K L M         ",
"      N O P w Q R S T U V W X Y Z `  ...+.@.#.$.%.&.*.      ",
"      =.-.;.>.,.'.).!.~.{.].E ^./.(._.:.<.[.}.|.1.2.3.4.    ",
"    5.6.w 7.8.9.0.a.b.c.d.e.f.g.h.i.j.k.l.m.n.o.p.q.r.s.    ",
"  t.u.v.w.x.y.z.A.B.C.D.E.F.G./.H.I.J.+.K.L.M.N.O.P.Q.R.S.  ",
"  T.U.V.W.X.Y.Z.`. +.+++@+#+$+%+&+*+=+-+;+>+,+'+)+!+~+{+]+  ",
"  ^+/+(+_+:+<+[+}+|+1+2+3+4+5+n 6+7+8+K.9+0+a+b+c+d+P.e+f+  ",
"g+h+i+j+k+l+m+n+o+p+q+r+s+t+u+I.v+w+x+m.y+,+z+A+B+d+C+D+E+F+",
"G+H+I+J+K+L+M+N+O+P+Q+R+S+T+I.U+k.V+W+#.M.X+Y+Z+`+ @.@+@R.@@",
"#@$@%@%@&@*@=@-@;@>@,@'@)@!@~@{@]@^@/@(@_@:@<@[@}@|@1@2@3@4@",
"5@6@7@8@9@0@a@b@c@d@e@f@g@*+h@i@j@k@l@m@n@o@p@q@r@s@P.2@t@u@",
"v@w@x@y@z@E A@B@C@D@E@!@F@G@H@I@;+J@K@L@M@N@O@P@Q@R@S@T@U@V@",
"W@X@Y@Z@Y l g.`@ #n .#~@+#@#I@;+#.##_@$#%#!+&#*#=#!+~+-#;#>#",
",#'#^.)#!#~#h.{#]#_.^#/#(#j@_#:#<#[#}#|#1#2#3#4#=#5#6#7#8#9#",
"0#a#b#G c#d#H I.j.e#f#<.g#h#i#<#j#k#l#m#n#o#p#r@q#.@r#s#t#u#",
"  v#w#x#y#I.z#A#B#C#V+D#E#F#G#j#H#Y+I#J#K#L#4#M#!+P.m#N#O#P#",
"  Q#R#_.*+~@7+S#H@l.W+T#}.U#_@H#V#7#W#X#Y#Z#`# $.@q..$+$@$  ",
"    #$$${@%$@#-+j@&$9+*$=$o.}#-$;$>$,$Y#*#r@q#'$)$!$I#~${$  ",
"    ]$^$/$($I@_$m.:#:$<$[$}$|#I#|$3#Y#*#1$2$!+3$4$5$6$7$    ",
"      8$9$_$0$a$b$<#m@c$d$e$N@|$f$g$*#}@`#h$)$i$j$~+k$      ",
"      l$m$n$}.o$p$|.q$r$s$!$[@t$u$v$w$x$!+1@Z+y$z$A$B$      ",
"        C$D$E$_@F$}#G$H$h$I$Z#J$w$2$K$L$M$N$O$P$Q$R$        ",
"          S$T$U$V$W$X$Y$J#Z$d+ @`$ %.%+%y$-#@%#%$%          ",
"              %%&%*%=%-% %;%1#Z+>%,%'%)%!%~%{%              ",
"                  ]%^%/%(%_%:%<%[%}%|%1%2%3%                ",
"                      4%5%6%7%8%9%0%a%                      "};
