/* XPM */
static char * red_queen_xpm[] = {
"50 50 163 2",
"  	c None",
". 	c #ACAB8A",
"+ 	c #D5AB9A",
"@ 	c #E7A89E",
"# 	c #F3A39E",
"$ 	c #FD9A9A",
"% 	c #FE9293",
"& 	c #FE8B8B",
"* 	c #FB8886",
"= 	c #F3847F",
"- 	c #E68177",
"; 	c #AB805E",
"> 	c #7F8956",
", 	c #D8B5A5",
"' 	c #FBACAB",
") 	c #FF7B7B",
"! 	c #FF6A6B",
"~ 	c #FF5454",
"{ 	c #FF4343",
"] 	c #FF3C3C",
"^ 	c #FF4748",
"/ 	c #FE4C4C",
"( 	c #FF5959",
"_ 	c #F8615E",
": 	c #D96455",
"< 	c #A2714D",
"[ 	c #EAB6AE",
"} 	c #FBA8A7",
"| 	c #FF2B2B",
"1 	c #FF0F10",
"2 	c #FF0B0B",
"3 	c #FE0000",
"4 	c #FF1C1C",
"5 	c #FE3232",
"6 	c #E44A40",
"7 	c #9B643F",
"8 	c #FF1313",
"9 	c #FF2323",
"0 	c #CC3E2D",
"a 	c #9EAA83",
"b 	c #F1B4AF",
"c 	c #E8221B",
"d 	c #F40D0A",
"e 	c #AEA887",
"f 	c #FF7474",
"g 	c #FE6363",
"h 	c #ED0000",
"i 	c #894424",
"j 	c #A0A47D",
"k 	c #FBA5A5",
"l 	c #DC0000",
"m 	c #734C28",
"n 	c #849C6B",
"o 	c #F40000",
"p 	c #C10B06",
"q 	c #595F32",
"r 	c #629E5F",
"s 	c #FF8181",
"t 	c #E40000",
"u 	c #971B0E",
"v 	c #B2997A",
"w 	c #C50000",
"x 	c #67391E",
"y 	c #72985E",
"z 	c #F0908B",
"A 	c #940D06",
"B 	c #456334",
"C 	c #B59274",
"D 	c #C33D0D",
"E 	c #56AF27",
"F 	c #28DF32",
"G 	c #1EEA34",
"H 	c #1BED35",
"I 	c #B40000",
"J 	c #5C3019",
"K 	c #EC857E",
"L 	c #669E23",
"M 	c #18F035",
"N 	c #D20000",
"O 	c #7A0E07",
"P 	c #3A5F32",
"Q 	c #9B8E65",
"R 	c #DB2308",
"S 	c #41C52C",
"T 	c #19EF35",
"U 	c #950000",
"V 	c #413B1F",
"W 	c #CD7E6A",
"X 	c #AB0000",
"Y 	c #4F1D0F",
"Z 	c #689356",
"` 	c #ED7069",
" .	c #5A0B05",
"..	c #868756",
"+.	c #BB0000",
"@.	c #630000",
"#.	c #243D20",
"$.	c #A37954",
"%.	c #6B0100",
"&.	c #2E2E18",
"*.	c #B86D51",
"=.	c #740000",
"-.	c #302212",
";.	c #C75E48",
">.	c #7B0000",
",.	c #31190D",
"'.	c #2B5D31",
").	c #CE5441",
"!.	c #A50000",
"~.	c #32140B",
"{.	c #27532C",
"].	c #CF4C39",
"^.	c #2D130A",
"/.	c #CE4533",
"(.	c #C2432D",
"_.	c #2C1A0E",
":.	c #B24629",
"<.	c #CD0000",
"[.	c #5A0000",
"}.	c #99532D",
"|.	c #4B0000",
"1.	c #282915",
"2.	c #776C39",
"3.	c #9B0000",
"4.	c #3B0402",
"5.	c #212D18",
"6.	c #DB160D",
"7.	c #340A05",
"8.	c #AF2E18",
"9.	c #8B0000",
"0.	c #540000",
"a.	c #1E4223",
"b.	c #7A572E",
"c.	c #430000",
"d.	c #232212",
"e.	c #538043",
"f.	c #B3160B",
"g.	c #370603",
"h.	c #1B331B",
"i.	c #7C4424",
"j.	c #251C0F",
"k.	c #4F783F",
"l.	c #9F130A",
"m.	c #1B2F18",
"n.	c #674926",
"o.	c #211F10",
"p.	c #468043",
"q.	c #762413",
"r.	c #830000",
"s.	c #1B2915",
"t.	c #214625",
"u.	c #730804",
"v.	c #1E2212",
"w.	c #1C3E21",
"x.	c #1A381D",
"y.	c #530804",
"z.	c #334826",
"A.	c #400F08",
"B.	c #2B562D",
"C.	c #316635",
"D.	c #2E391E",
"E.	c #2B331B",
"F.	c #20341B",
"                                                                                                    ",
"                                                                                                    ",
"                                                                                                    ",
"                                      . + @ # $ % & * = - - ; >                                     ",
"                                  , ' $ ) ! ~ { ] ] ] ^ / ( _ _ : <                                 ",
"                            . [ } = ~ | 1 2 3 3 3 3 3 3 2 2 4 5 { ^ 6 7                             ",
"                          , ' ) ] 8 2 3 3 3 3 3 3 3 3 3 3 3 3 3 2 9 5 5 0                           ",
"                      a b % / 8 3 3 3 3 3 3 3 3 3 3 3 3 3 3 3 3 3 3 2 4 9 c                         ",
"                    . ' ) | 2 3 3 3 3 3 2 4 5 ] { ] 5 | 8 2 3 3 3 3 3 2 2 4 d                       ",
"                  e } ! 9 3 3 3 3 2 | ( f = ) f ! ! g g ( ~ 5 8 3 3 3 3 3 2 8 h i                   ",
"                j k ! 4 3 3 3 3 | ! * f ( ] | 4 8 4 8 9 9 ] ^ ^ | 8 3 3 3 3 2 2 l m                 ",
"              n # f 4 o 3 3 8 ~ & f { 9 2 3 3 3 3 3 3 3 3 2 1 9 5 5 4 3 3 3 3 3 o p q               ",
"            r @ = 9 3 3 3 4 f s / 4 2 3 3 3 3 3 3 3 3 3 3 3 3 3 2 4 9 4 3 3 3 3 2 t u               ",
"            v & ] 2 3 3 4 f f 5 2 3 3 3 3 3 3 3 3 3 3 3 3 3 3 3 3 3 8 8 2 3 3 3 3 o w x             ",
"          y z _ 1 3 3 8 f f | 2 3 3 3 3 3 3 3 3 3 3 3 3 3 3 3 3 3 3 3 2 2 3 3 3 3 3 t A B           ",
"          C = | 3 3 2 ~ f | 2 3 3 3 3 3 D E F G H H G F E D 3 3 3 3 3 3 2 o h 3 3 3 o I J           ",
"          K ( 2 3 3 5 f ] 2 3 3 3 3 3 L G M M M M M M M M G L 3 3 3 3 3 3 3 t h 3 3 3 N O P         ",
"        Q f 5 3 3 2 g ~ 8 3 3 3 3 R S T M M M M M M M M M M T S R 3 3 3 3 3 h l o 3 3 t U V         ",
"        W g 8 3 3 | ! | 3 3 3 3 3 S M M M M M M M M M M M M M M S 3 3 3 3 3 o N t 3 3 o X Y         ",
"      Z ` ^ 2 3 2 / / 8 3 3 3 3 L T M M M M M M M M M M M M M M T L 3 3 3 3 3 l w o 3 3 w  .        ",
"      ..g 5 3 3 2 ~ 5 2 3 3 3 D G M M M M M M M M M M M M M M M M G D 3 3 3 3 t +.h 3 3 N @.#.      ",
"      $.~ 4 3 3 4 ~ 4 3 3 3 3 E M M M M M M M M M M M M M M M M M M E 3 3 3 3 h I l 3 3 t %.&.      ",
"      *.^ 8 3 3 9 { 8 3 3 3 3 F M M M M M M M M M M M M M M M M M M F 3 3 3 3 o I w 3 3 t =.-.      ",
"      ;.] 2 3 3 | ] 2 3 3 3 3 G M M M M M M M M M M M M M M M M M M G 3 3 3 3 o I I 3 3 h >.,.'.    ",
"      ).] 2 3 3 | | 2 3 3 3 3 H M M M M M M M M M M M M M M M M M M H 3 3 3 3 o X !.3 3 h >.~.{.    ",
"      ].| 2 3 3 4 | 2 3 3 3 3 H M M M M M M M M M M M M M M M M M M H 3 3 3 3 o X !.3 3 h >.^.{.    ",
"      /.9 2 3 3 8 9 2 3 3 3 3 G M M M M M M M M M M M M M M M M M M G 3 3 3 3 h U !.3 3 h =.^.      ",
"      (.9 2 3 3 2 8 2 3 3 3 3 F M M M M M M M M M M M M M M M M M M F 3 3 3 3 t >.I 3 3 t %._.      ",
"      :.4 2 3 3 3 8 2 3 3 3 3 E M M M M M M M M M M M M M M M M M M E 3 3 3 3 <.=.<.3 3 N [._.      ",
"      }.2 2 3 3 3 2 2 3 3 3 3 D G M M M M M M M M M M M M M M M M G D 3 3 3 o X =.h 3 3 +.|.1.      ",
"      2.d 2 3 3 3 o 3 3 3 3 3 3 L T M M M M M M M M M M M M M M T L 3 3 3 3 t =.U 3 3 3 3.4.5.      ",
"        6.2 3 3 3 o h o 3 3 3 3 3 S M M M M M M M M M M M M M M S 3 3 3 3 o I @.<.3 3 h >.7.#.      ",
"        8.o 3 3 3 3 t t 3 3 3 3 3 R S T M M M M M M M M M M T S R 3 3 3 3 l =.9.o 3 3 N 0.^.a.      ",
"        b.t 3 3 3 3 o N t 3 3 3 3 3 3 L G M M M M M M M M G L 3 3 3 3 3 t U @.l 3 3 o 3.c.d.{.      ",
"        e.f.h 3 3 3 3 t w t 3 3 3 3 3 3 D E F G H H G F E D 3 3 3 3 3 h X [.I 3 3 3 l @.g.h.'.      ",
"          i.N o 3 3 3 3 N +.t o 3 3 3 3 3 3 3 3 3 3 3 3 3 3 3 3 3 3 h X [.3.o 3 3 o !.c.j.a.        ",
"          k.l.l 3 3 3 3 o w X N h 3 3 3 3 3 3 3 3 3 3 3 3 3 3 3 o t U 0.3.o 3 3 3 N @.g.m.{.        ",
"            n.I t 3 3 3 3 3 w U I l o 3 3 3 3 3 3 3 3 3 3 3 3 t +.=.[.X o 3 3 3 h 9.4.o.a.          ",
"            p.q.I h 3 3 3 3 3 l 3.9.X N t o 3 3 3 3 3 o h l I >.[.=.N 3 3 3 3 o !.|.^.m.            ",
"              B O +.h 3 3 3 3 3 h w r.=.>.U X I +.+.X 3.>.%.[.=.+.h 3 3 3 3 o +.0.g.s.t.            ",
"                  u.I h 3 3 3 3 3 3 o N !.r.=.@.@.[.[.%.>.!.N o 3 3 3 3 3 o +.[.g.v.w.              ",
"                    %.X t 3 3 3 3 3 3 3 3 o h t t t t h o 3 3 3 3 3 3 3 o I [.g.o.x.                ",
"                      y.U N o 3 3 3 3 3 3 3 3 3 3 3 3 3 3 3 3 3 3 3 3 t 3.0.g.o.x.                  ",
"                      z.A.%.X t 3 3 3 3 3 3 3 3 3 3 3 3 3 3 3 3 3 h w =.c.7.v.                      ",
"                        B.,.|.=.X t o 3 3 3 3 3 3 3 3 3 3 3 o t w 9.0.4.^.s.                        ",
"                          C.D.~.|.%.9.I N t o o o 3 o h t w !.=.|.4.7.o.h.                          ",
"                              B.E.,.4.c.[.%.>.r.9.r.>.=.[.|.c.g.^.v.m.a.                            ",
"                                    #.1._.7.g.g.g.g.g.g.7.^.o.s.m.a.                                ",
"                                        {.t.#.F.h.5.h.h.                                            ",
"                                                                                                    "};
