/* XPM */
static char * red_checker_xpm[] = {
"50 50 153 2",
"  	c None",
". 	c #ACAB8A",
"+ 	c #D5AB9A",
"@ 	c #E7A89E",
"# 	c #F3A39E",
"$ 	c #FD9A9A",
"% 	c #FE9293",
"& 	c #FE8B8B",
"* 	c #FB8886",
"= 	c #F3847F",
"- 	c #E68177",
"; 	c #AB805E",
"> 	c #7F8956",
", 	c #D8B5A5",
"' 	c #FBACAB",
") 	c #FF7B7B",
"! 	c #FF6A6B",
"~ 	c #FF5454",
"{ 	c #FF4343",
"] 	c #FF3C3C",
"^ 	c #FF4748",
"/ 	c #FE4C4C",
"( 	c #FF5959",
"_ 	c #F8615E",
": 	c #D96455",
"< 	c #A2714D",
"[ 	c #EAB6AE",
"} 	c #FBA8A7",
"| 	c #FF2B2B",
"1 	c #FF0F10",
"2 	c #FF0B0B",
"3 	c #FE0000",
"4 	c #FF1C1C",
"5 	c #FE3232",
"6 	c #E44A40",
"7 	c #9B643F",
"8 	c #FF1313",
"9 	c #FF2323",
"0 	c #CC3E2D",
"a 	c #9EAA83",
"b 	c #F1B4AF",
"c 	c #E8221B",
"d 	c #F40D0A",
"e 	c #AEA887",
"f 	c #FF7474",
"g 	c #FE6363",
"h 	c #ED0000",
"i 	c #894424",
"j 	c #A0A47D",
"k 	c #FBA5A5",
"l 	c #DC0000",
"m 	c #734C28",
"n 	c #849C6B",
"o 	c #F40000",
"p 	c #C10B06",
"q 	c #595F32",
"r 	c #629E5F",
"s 	c #FF8181",
"t 	c #E40000",
"u 	c #971B0E",
"v 	c #B2997A",
"w 	c #C50000",
"x 	c #67391E",
"y 	c #72985E",
"z 	c #F0908B",
"A 	c #940D06",
"B 	c #456334",
"C 	c #B59274",
"D 	c #B40000",
"E 	c #5C3019",
"F 	c #EC857E",
"G 	c #D20000",
"H 	c #7A0E07",
"I 	c #3A5F32",
"J 	c #9B8E65",
"K 	c #950000",
"L 	c #413B1F",
"M 	c #CD7E6A",
"N 	c #AB0000",
"O 	c #4F1D0F",
"P 	c #689356",
"Q 	c #ED7069",
"R 	c #5A0B05",
"S 	c #868756",
"T 	c #BB0000",
"U 	c #630000",
"V 	c #243D20",
"W 	c #A37954",
"X 	c #6B0100",
"Y 	c #2E2E18",
"Z 	c #B86D51",
"` 	c #740000",
" .	c #302212",
"..	c #C75E48",
"+.	c #7B0000",
"@.	c #31190D",
"#.	c #2B5D31",
"$.	c #CE5441",
"%.	c #A50000",
"&.	c #32140B",
"*.	c #27532C",
"=.	c #CF4C39",
"-.	c #2D130A",
";.	c #CE4533",
">.	c #C2432D",
",.	c #2C1A0E",
"'.	c #B24629",
").	c #CD0000",
"!.	c #5A0000",
"~.	c #99532D",
"{.	c #4B0000",
"].	c #282915",
"^.	c #776C39",
"/.	c #9B0000",
"(.	c #3B0402",
"_.	c #212D18",
":.	c #DB160D",
"<.	c #340A05",
"[.	c #AF2E18",
"}.	c #8B0000",
"|.	c #540000",
"1.	c #1E4223",
"2.	c #7A572E",
"3.	c #430000",
"4.	c #232212",
"5.	c #538043",
"6.	c #B3160B",
"7.	c #370603",
"8.	c #1B331B",
"9.	c #7C4424",
"0.	c #251C0F",
"a.	c #4F783F",
"b.	c #9F130A",
"c.	c #1B2F18",
"d.	c #674926",
"e.	c #211F10",
"f.	c #468043",
"g.	c #762413",
"h.	c #830000",
"i.	c #1B2915",
"j.	c #214625",
"k.	c #730804",
"l.	c #1E2212",
"m.	c #1C3E21",
"n.	c #1A381D",
"o.	c #530804",
"p.	c #334826",
"q.	c #400F08",
"r.	c #2B562D",
"s.	c #316635",
"t.	c #2E391E",
"u.	c #2B331B",
"v.	c #20341B",
"                                                                                                    ",
"                                                                                                    ",
"                                                                                                    ",
"                                      . + @ # $ % & * = - - ; >                                     ",
"                                  , ' $ ) ! ~ { ] ] ] ^ / ( _ _ : <                                 ",
"                            . [ } = ~ | 1 2 3 3 3 3 3 3 2 2 4 5 { ^ 6 7                             ",
"                          , ' ) ] 8 2 3 3 3 3 3 3 3 3 3 3 3 3 3 2 9 5 5 0                           ",
"                      a b % / 8 3 3 3 3 3 3 3 3 3 3 3 3 3 3 3 3 3 3 2 4 9 c                         ",
"                    . ' ) | 2 3 3 3 3 3 2 4 5 ] { ] 5 | 8 2 3 3 3 3 3 2 2 4 d                       ",
"                  e } ! 9 3 3 3 3 2 | ( f = ) f ! ! g g ( ~ 5 8 3 3 3 3 3 2 8 h i                   ",
"                j k ! 4 3 3 3 3 | ! * f ( ] | 4 8 4 8 9 9 ] ^ ^ | 8 3 3 3 3 2 2 l m                 ",
"              n # f 4 o 3 3 8 ~ & f { 9 2 3 3 3 3 3 3 3 3 2 1 9 5 5 4 3 3 3 3 3 o p q               ",
"            r @ = 9 3 3 3 4 f s / 4 2 3 3 3 3 3 3 3 3 3 3 3 3 3 2 4 9 4 3 3 3 3 2 t u               ",
"            v & ] 2 3 3 4 f f 5 2 3 3 3 3 3 3 3 3 3 3 3 3 3 3 3 3 3 8 8 2 3 3 3 3 o w x             ",
"          y z _ 1 3 3 8 f f | 2 3 3 3 3 3 3 3 3 3 3 3 3 3 3 3 3 3 3 3 2 2 3 3 3 3 3 t A B           ",
"          C = | 3 3 2 ~ f | 2 3 3 3 3 3 3 3 3 3 3 3 3 3 3 3 3 3 3 3 3 3 2 o h 3 3 3 o D E           ",
"          F ( 2 3 3 5 f ] 2 3 3 3 3 3 3 3 3 3 3 3 3 3 3 3 3 3 3 3 3 3 3 3 3 t h 3 3 3 G H I         ",
"        J f 5 3 3 2 g ~ 8 3 3 3 3 3 3 3 3 3 3 3 3 3 3 3 3 3 3 3 3 3 3 3 3 3 h l o 3 3 t K L         ",
"        M g 8 3 3 | ! | 3 3 3 3 3 3 3 3 3 3 3 3 3 3 3 3 3 3 3 3 3 3 3 3 3 3 o G t 3 3 o N O         ",
"      P Q ^ 2 3 2 / / 8 3 3 3 3 3 3 3 3 3 3 3 3 3 3 3 3 3 3 3 3 3 3 3 3 3 3 3 l w o 3 3 w R         ",
"      S g 5 3 3 2 ~ 5 2 3 3 3 3 3 3 3 3 3 3 3 3 3 3 3 3 3 3 3 3 3 3 3 3 3 3 3 t T h 3 3 G U V       ",
"      W ~ 4 3 3 4 ~ 4 3 3 3 3 3 3 3 3 3 3 3 3 3 3 3 3 3 3 3 3 3 3 3 3 3 3 3 3 h D l 3 3 t X Y       ",
"      Z ^ 8 3 3 9 { 8 3 3 3 3 3 3 3 3 3 3 3 3 3 3 3 3 3 3 3 3 3 3 3 3 3 3 3 3 o D w 3 3 t `  .      ",
"      ..] 2 3 3 | ] 2 3 3 3 3 3 3 3 3 3 3 3 3 3 3 3 3 3 3 3 3 3 3 3 3 3 3 3 3 o D D 3 3 h +.@.#.    ",
"      $.] 2 3 3 | | 2 3 3 3 3 3 3 3 3 3 3 3 3 3 3 3 3 3 3 3 3 3 3 3 3 3 3 3 3 o N %.3 3 h +.&.*.    ",
"      =.| 2 3 3 4 | 2 3 3 3 3 3 3 3 3 3 3 3 3 3 3 3 3 3 3 3 3 3 3 3 3 3 3 3 3 o N %.3 3 h +.-.*.    ",
"      ;.9 2 3 3 8 9 2 3 3 3 3 3 3 3 3 3 3 3 3 3 3 3 3 3 3 3 3 3 3 3 3 3 3 3 3 h K %.3 3 h ` -.      ",
"      >.9 2 3 3 2 8 2 3 3 3 3 3 3 3 3 3 3 3 3 3 3 3 3 3 3 3 3 3 3 3 3 3 3 3 3 t +.D 3 3 t X ,.      ",
"      '.4 2 3 3 3 8 2 3 3 3 3 3 3 3 3 3 3 3 3 3 3 3 3 3 3 3 3 3 3 3 3 3 3 3 3 ).` ).3 3 G !.,.      ",
"      ~.2 2 3 3 3 2 2 3 3 3 3 3 3 3 3 3 3 3 3 3 3 3 3 3 3 3 3 3 3 3 3 3 3 3 o N ` h 3 3 T {.].      ",
"      ^.d 2 3 3 3 o 3 3 3 3 3 3 3 3 3 3 3 3 3 3 3 3 3 3 3 3 3 3 3 3 3 3 3 3 t ` K 3 3 3 /.(._.      ",
"        :.2 3 3 3 o h o 3 3 3 3 3 3 3 3 3 3 3 3 3 3 3 3 3 3 3 3 3 3 3 3 3 o D U ).3 3 h +.<.V       ",
"        [.o 3 3 3 3 t t 3 3 3 3 3 3 3 3 3 3 3 3 3 3 3 3 3 3 3 3 3 3 3 3 3 l ` }.o 3 3 G |.-.1.      ",
"        2.t 3 3 3 3 o G t 3 3 3 3 3 3 3 3 3 3 3 3 3 3 3 3 3 3 3 3 3 3 3 t K U l 3 3 o /.3.4.*.      ",
"        5.6.h 3 3 3 3 t w t 3 3 3 3 3 3 3 3 3 3 3 3 3 3 3 3 3 3 3 3 3 h N !.D 3 3 3 l U 7.8.#.      ",
"          9.G o 3 3 3 3 G T t o 3 3 3 3 3 3 3 3 3 3 3 3 3 3 3 3 3 3 h N !./.o 3 3 o %.3.0.1.        ",
"          a.b.l 3 3 3 3 o w N G h 3 3 3 3 3 3 3 3 3 3 3 3 3 3 3 o t K |./.o 3 3 3 G U 7.c.*.        ",
"            d.D t 3 3 3 3 3 w K D l o 3 3 3 3 3 3 3 3 3 3 3 3 t T ` !.N o 3 3 3 h }.(.e.1.          ",
"            f.g.D h 3 3 3 3 3 l /.}.N G t o 3 3 3 3 3 o h l D +.!.` G 3 3 3 3 o %.{.-.c.            ",
"              B H T h 3 3 3 3 3 h w h.` +.K N D T T N /.+.X !.` T h 3 3 3 3 o T |.7.i.j.            ",
"                  k.D h 3 3 3 3 3 3 o G %.h.` U U !.!.X +.%.G o 3 3 3 3 3 o T !.7.l.m.              ",
"                    X N t 3 3 3 3 3 3 3 3 o h t t t t h o 3 3 3 3 3 3 3 o D !.7.e.n.                ",
"                      o.K G o 3 3 3 3 3 3 3 3 3 3 3 3 3 3 3 3 3 3 3 3 t /.|.7.e.n.                  ",
"                      p.q.X N t 3 3 3 3 3 3 3 3 3 3 3 3 3 3 3 3 3 h w ` 3.<.l.                      ",
"                        r.@.{.` N t o 3 3 3 3 3 3 3 3 3 3 3 o t w }.|.(.-.i.                        ",
"                          s.t.&.{.X }.D G t o o o 3 o h t w %.` {.(.<.e.8.                          ",
"                              r.u.@.(.3.!.X +.h.}.h.+.` !.{.3.7.-.l.c.1.                            ",
"                                    V ].,.<.7.7.7.7.7.7.<.-.e.i.c.1.                                ",
"                                        *.j.V v.8._.8.8.                                            ",
"                                                                                                    "};
