/* XPM */
static char * white_checker_xpm[] = {
"50 50 89 1",
" 	c None",
".	c #63AA6B",
"+	c #73B37A",
"@	c #7BB281",
"#	c #84BC8A",
"$	c #5BA563",
"%	c #B0D4B4",
"&	c #D7E8D8",
"*	c #E7F1E8",
"=	c #F4F8F5",
"-	c #FDFDFD",
";	c #E5F0E6",
">	c #D1E5D3",
",	c #AAD0AE",
"'	c #7DB883",
")	c #6AAE71",
"!	c #A8CFAC",
"~	c #E5EBE5",
"{	c #D8E4DA",
"]	c #A1CBA5",
"^	c #EBEBEB",
"/	c #F4F4F4",
"(	c #99C79E",
"_	c #DAEADC",
":	c #CCE2CF",
"<	c #9CC9A1",
"[	c #8EC194",
"}	c #51A15A",
"|	c #AED2B2",
"1	c #90BB94",
"2	c #DBDCDB",
"3	c #7DAC82",
"4	c #C0C9C1",
"5	c #E4E4E4",
"6	c #9BB19E",
"7	c #C2C2C2",
"8	c #729E77",
"9	c #9A9A9A",
"0	c #B6D7B9",
"a	c #B3B3B3",
"b	c #69926D",
"c	c #EBF3EC",
"d	c #CCCCCC",
"e	c #7D8B7E",
"f	c #8F918F",
"g	c #548B5A",
"h	c #A4A3A3",
"i	c #5B795E",
"j	c #BBBBBB",
"k	c #636C64",
"l	c #ACACAC",
"m	c #D2D2D2",
"n	c #6A6C6B",
"o	c #706E70",
"p	c #C3DDC6",
"q	c #747374",
"r	c #8B8A8A",
"s	c #787778",
"t	c #A7A8A7",
"u	c #757C75",
"v	c #939393",
"w	c #7C7C7C",
"x	c #828282",
"y	c #636363",
"z	c #AFCAB2",
"A	c #5B5B5B",
"B	c #545454",
"C	c #4C4C4C",
"D	c #3F4C40",
"E	c #4D504E",
"F	c #424943",
"G	c #434543",
"H	c #549C5C",
"I	c #405443",
"J	c #80BA86",
"K	c #9FACA1",
"L	c #6C9B71",
"M	c #AFB0AF",
"N	c #7A947D",
"O	c #3E3F3E",
"P	c #7E847E",
"Q	c #497E4F",
"R	c #555E56",
"S	c #426446",
"T	c #47834D",
"U	c #446D48",
"V	c #3F5141",
"W	c #3E473F",
"X	c #467C4C",
"                                                  ",
"                                                  ",
"                     .+@##                        ",
"                 $#%&*=-=--=;>,'                  ",
"               )!~=------------={].               ",
"             $!^-------//-/-=-----~(              ",
"             _---=--=-=------=-==--=:             ",
"           <=-----=-------/----------*[           ",
"         }|---/---------------=--/-/--/1          ",
"         |------=-=--------------------^1         ",
"        ]=---=-------------------/=-/---23        ",
"       #=--=--/=-------------------=--/-=4        ",
"      ._---/-/----------------------/----56       ",
"      %--=-//------------------------//--/78      ",
"     +/----//------------------------/^/--29      ",
"     0---=//-------------------------/5/-=/ab     ",
"    )c-/-=^---------------------------52=-/de     ",
"    <----^=---------------------------/d^--5fg    ",
"    :---/^----------------------------=dd/-/hi    ",
"   )c-/-^^-----------------------------2j^-/jk    ",
"   #/---5/-----------------------------5lm-/dn    ",
"   ]--=-2------------------------------^lj--2n    ",
"   0--=/2------------------------------/ah/-5o    ",
"   p---/2------------------------------/af^-^q    ",
"   :---^2------------------------------=lr^-^s    ",
"   >-=-^2------------------------------/ts^-^u    ",
"   :--=^m------------------------------/vw^-5n    ",
"   p---/d------------------------------5xx/-5y    ",
"   z---/d/-----------------------------dy9--dA    ",
"   <-/--m5----------------------------/lBj--jC    ",
"   +/---57----------------------------5sA^-=9D    ",
"   ${-/-=j2--------------------------=aEv/-^qF    ",
"    z=---2a^/------------------------2qBm--dB     ",
"    @2/--/aj^-----------------------^vG9--/9G     ",
"    Hj^=--^vj5---------------------/tEy5--mAI     ",
"     Jd/-/-mva5/------------------^tBAm--/hG      ",
"      K2/-/-drhd^---------------=5vEAd---mAI      ",
"      LM5----msxa2/-----------=^jqGAm---^xG       ",
"       Na^----2ryxtd5=-----=/maxCOw2-/-/hG        ",
"        Pa^/-=-/joByxvljjja9xyFOnj=---=aB         ",
"         ua^=----/7xAGGGGGOOOBx7/---//jA          ",
"          nh5=/-/--/^dl9vv9ad^/--/-//aA           ",
"          QRrd/----/-------------/-5vCD           ",
"            Ent5/----/--=--/--=-//7qG             ",
"             SCql2/-----------=^7xCG              ",
"               IFyram5^////^249qCG                ",
"                 SDCByqxrxsoACGDS                 ",
"                   TUVVWWWDFVUX                   ",
"                                                  ",
"                                                  "};
