/* XPM */
static char * white_queen_xpm[] = {
"50 50 108 2",
"  	c None",
". 	c #63AA6B",
"+ 	c #73B37A",
"@ 	c #7BB281",
"# 	c #84BC8A",
"$ 	c #5BA563",
"% 	c #B0D4B4",
"& 	c #D7E8D8",
"* 	c #E7F1E8",
"= 	c #F4F8F5",
"- 	c #FDFDFD",
"; 	c #E5F0E6",
"> 	c #D1E5D3",
", 	c #AAD0AE",
"' 	c #7DB883",
") 	c #6AAE71",
"! 	c #A8CFAC",
"~ 	c #E5EBE5",
"{ 	c #D8E4DA",
"] 	c #A1CBA5",
"^ 	c #EBEBEB",
"/ 	c #F4F4F4",
"( 	c #99C79E",
"_ 	c #DAEADC",
": 	c #CCE2CF",
"< 	c #9CC9A1",
"[ 	c #8EC194",
"} 	c #51A15A",
"| 	c #AED2B2",
"1 	c #90BB94",
"2 	c #DBDCDB",
"3 	c #7DAC82",
"4 	c #C0C9C1",
"5 	c #E4E4E4",
"6 	c #9BB19E",
"7 	c #BFF9C3",
"8 	c #4FF45A",
"9 	c #23F131",
"0 	c #1AF129",
"a 	c #17F126",
"b 	c #C2C2C2",
"c 	c #729E77",
"d 	c #5FF469",
"e 	c #1AF125",
"f 	c #15F124",
"g 	c #9A9A9A",
"h 	c #B6D7B9",
"i 	c #D8FBDA",
"j 	c #3BF247",
"k 	c #16F124",
"l 	c #16F125",
"m 	c #B3B3B3",
"n 	c #69926D",
"o 	c #EBF3EC",
"p 	c #39F22C",
"q 	c #CCCCCC",
"r 	c #7D8B7E",
"s 	c #8F918F",
"t 	c #548B5A",
"u 	c #A4A3A3",
"v 	c #5B795E",
"w 	c #4CF430",
"x 	c #BBBBBB",
"y 	c #636C64",
"z 	c #22F127",
"A 	c #ACACAC",
"B 	c #D2D2D2",
"C 	c #6A6C6B",
"D 	c #17F124",
"E 	c #706E70",
"F 	c #C3DDC6",
"G 	c #747374",
"H 	c #8B8A8A",
"I 	c #787778",
"J 	c #A7A8A7",
"K 	c #757C75",
"L 	c #939393",
"M 	c #7C7C7C",
"N 	c #B7F947",
"O 	c #828282",
"P 	c #636363",
"Q 	c #AFCAB2",
"R 	c #5CF433",
"S 	c #5B5B5B",
"T 	c #545454",
"U 	c #4C4C4C",
"V 	c #D0FB4D",
"W 	c #3F4C40",
"X 	c #4D504E",
"Y 	c #424943",
"Z 	c #434543",
"` 	c #549C5C",
" .	c #405443",
"..	c #80BA86",
"+.	c #9FACA1",
"@.	c #6C9B71",
"#.	c #AFB0AF",
"$.	c #7A947D",
"%.	c #3E3F3E",
"&.	c #7E847E",
"*.	c #497E4F",
"=.	c #555E56",
"-.	c #426446",
";.	c #47834D",
">.	c #446D48",
",.	c #3F5141",
"'.	c #3E473F",
").	c #467C4C",
"                                                                                                    ",
"                                                                                                    ",
"                                          . + @ # #                                                 ",
"                                  $ # % & * = - = - - = ; > , '                                     ",
"                              ) ! ~ = - - - - - - - - - - - - = { ] .                               ",
"                          $ ! ^ - - - - - - - / / - / - = - - - - - ~ (                             ",
"                          _ - - - = - - = - = - - - - - - = - = = - - = :                           ",
"                      < = - - - - - = - - - - - - - / - - - - - - - - - - * [                       ",
"                  } | - - - / - - - - - - - - - - - - - - - = - - / - / - - / 1                     ",
"                  | - - - - - - = - = - - - - - - - - - - - - - - - - - - - - ^ 1                   ",
"                ] = - - - = - - - - - - - - - - - - - - - - - - - / = - / - - - 2 3                 ",
"              # = - - = - - / = - - - - - - - - - - - - - - - - - - - = - - / - = 4                 ",
"            . _ - - - / - / - - - - - - - - - - - - - - - - - - - - - - / - - - - 5 6               ",
"            % - - = - / / - - - - - - - 7 8 9 0 a a 0 9 8 7 - - - - - - - / / - - / b c             ",
"          + / - - - - / / - - - - - - d e f f f f f f f f 0 d - - - - - - / ^ / - - 2 g             ",
"          h - - - = / / - - - - - i j k f f f f f f f f f f l j i - - - - / 5 / - = / m n           ",
"        ) o - / - = ^ - - - - - - p f f f f f f f f f f f f f f j - - - - - 5 2 = - / q r           ",
"        < - - - - ^ = - - - - - d k f f f f f f f f f f f f f f l d - - - - / q ^ - - 5 s t         ",
"        : - - - / ^ - - - - - 7 e f f f f f f f f f f f f f f f f 0 7 - - - = q q / - / u v         ",
"      ) o - / - ^ ^ - - - - - w f f f f f f f f f f f f f f f f f f 8 - - - - 2 x ^ - / x y         ",
"      # / - - - 5 / - - - - - z f f f f f f f f f f f f f f f f f f 9 - - - - 5 A B - / q C         ",
"      ] - - = - 2 - - - - - - e f f f f f f f f f f f f f f f f f f 0 - - - - ^ A x - - 2 C         ",
"      h - - = / 2 - - - - - - D f f f f f f f f f f f f f f f f f f a - - - - / m u / - 5 E         ",
"      F - - - / 2 - - - - - - D f f f f f f f f f f f f f f f f f f a - - - - / m s ^ - ^ G         ",
"      : - - - ^ 2 - - - - - - e f f f f f f f f f f f f f f f f f f 0 - - - - = A H ^ - ^ I         ",
"      > - = - ^ 2 - - - - - - z f f f f f f f f f f f f f f f f f f 9 - - - - / J I ^ - ^ K         ",
"      : - - = ^ B - - - - - - w f f f f f f f f f f f f f f f f f f 8 - - - - / L M ^ - 5 C         ",
"      F - - - / q - - - - - - N e f f f f f f f f f f f f f f f f e 7 - - - - 5 O O / - 5 P         ",
"      Q - - - / q / - - - - - - R k f f f f f f f f f f f f f f k d - - - - - q P g - - q S         ",
"      < - / - - B 5 - - - - - - - p f f f f f f f f f f f f f f j - - - - - / A T x - - x U         ",
"      + / - - - 5 b - - - - - - - V p k f f f f f f f f f f k p i - - - - - 5 I S ^ - = g W         ",
"      $ { - / - = x 2 - - - - - - - - R e f f f f f f f f e d - - - - - - = m X L / - ^ G Y         ",
"        Q = - - - 2 m ^ / - - - - - - - N w z e D D e z w 7 - - - - - - - 2 G T B - - q T           ",
"        @ 2 / - - / m x ^ - - - - - - - - - - - - - - - - - - - - - - - ^ L Z g - - / g Z           ",
"        ` x ^ = - - ^ L x 5 - - - - - - - - - - - - - - - - - - - - - / J X P 5 - - B S  .          ",
"          ..q / - / - B L m 5 / - - - - - - - - - - - - - - - - - - ^ J T S B - - / u Z             ",
"            +.2 / - / - q H u q ^ - - - - - - - - - - - - - - - = 5 L X S q - - - B S  .            ",
"            @.#.5 - - - - B I O m 2 / - - - - - - - - - - - = ^ x G Z S B - - - ^ O Z               ",
"              $.m ^ - - - - 2 H P O J q 5 = - - - - - = / B m O U %.M 2 - / - / u Z                 ",
"                &.m ^ / - = - / x E T P O L A x x x m g O P Y %.C x = - - - = m T                   ",
"                  K m ^ = - - - - / b O S Z Z Z Z Z %.%.%.T O b / - - - / / x S                     ",
"                    C u 5 = / - / - - / ^ q A g L L g m q ^ / - - / - / / m S                       ",
"                    *.=.H q / - - - - / - - - - - - - - - - - - - / - 5 L U W                       ",
"                        X C J 5 / - - - - / - - = - - / - - = - / / b G Z                           ",
"                          -.U G A 2 / - - - - - - - - - - - = ^ b O U Z                             ",
"                               .Y P H m B 5 ^ / / / / ^ 2 4 g G U Z                                 ",
"                                  -.W U T P G O H O I E S U Z W -.                                  ",
"                                      ;.>.,.,.'.'.'.W Y ,.>.).                                      ",
"                                                                                                    ",
"                                                                                                    "};
